<svg width="810" height="1051" viewBox="0 0 810 1051" xmlns="http://www.w3.org/2000/svg"><title>Group</title><g transform="translate(0 2)" fill="none" fill-rule="evenodd"><path d="M552.765 245.621l-1.705 4.88a2.706 2.706 0 0 1-1.663 1.662l-4.882 1.704c-2.42.845-2.42 4.265 0 5.11l4.882 1.704a2.706 2.706 0 0 1 1.663 1.663l1.705 4.88c.845 2.418 4.267 2.418 5.112 0l1.705-4.88a2.707 2.707 0 0 1 1.664-1.663l4.882-1.704c2.42-.845 2.42-4.265 0-5.11l-4.882-1.704a2.707 2.707 0 0 1-1.664-1.663l-1.705-4.879c-.845-2.419-4.267-2.419-5.112 0M209.865 127.766l-1.705 4.88a2.706 2.706 0 0 1-1.663 1.662l-4.882 1.704c-2.42.845-2.42 4.265 0 5.11l4.882 1.704a2.706 2.706 0 0 1 1.663 1.663l1.705 4.88c.845 2.418 4.267 2.418 5.112 0l1.705-4.88a2.707 2.707 0 0 1 1.664-1.663l4.882-1.704c2.42-.845 2.42-4.265 0-5.11l-4.882-1.704a2.707 2.707 0 0 1-1.664-1.663l-1.705-4.88c-.845-2.418-4.267-2.418-5.112 0M254.865 911.367l-1.705 4.88a2.706 2.706 0 0 1-1.663 1.662l-4.882 1.704c-2.42.845-2.42 4.265 0 5.11l4.882 1.704a2.706 2.706 0 0 1 1.663 1.663l1.705 4.88c.845 2.418 4.267 2.418 5.112 0l1.705-4.88a2.707 2.707 0 0 1 1.664-1.663l4.882-1.704c2.42-.845 2.42-4.265 0-5.11l-4.882-1.704a2.707 2.707 0 0 1-1.664-1.663l-1.705-4.879c-.845-2.418-4.267-2.418-5.112 0M547.551 385.19l-.974 2.788a1.546 1.546 0 0 1-.95.95l-2.79.974c-1.383.483-1.383 2.437 0 2.92l2.79.974c.444.155.795.505.95.95l.974 2.788c.483 1.382 2.439 1.382 2.922 0l.974-2.788c.155-.445.505-.795.95-.95l2.79-.974c1.383-.483 1.383-2.437 0-2.92l-2.79-.974a1.547 1.547 0 0 1-.95-.95l-.974-2.788c-.483-1.382-2.439-1.382-2.922 0M327.951 266.435l-.974 2.789a1.546 1.546 0 0 1-.95.95l-2.79.973c-1.383.483-1.383 2.438 0 2.92l2.79.974c.444.155.795.505.95.95l.974 2.788c.483 1.383 2.439 1.383 2.922 0l.974-2.788c.155-.445.505-.795.95-.95l2.79-.973c1.383-.483 1.383-2.438 0-2.92l-2.79-.974a1.547 1.547 0 0 1-.95-.95l-.974-2.789c-.483-1.382-2.439-1.382-2.922 0M399.951 1034.742l-.974 2.789a1.546 1.546 0 0 1-.95.95l-2.79.973c-1.383.483-1.383 2.438 0 2.92l2.79.974c.444.156.795.505.95.95l.974 2.788c.483 1.383 2.439 1.383 2.922 0l.974-2.788c.155-.445.505-.794.95-.95l2.79-.973c1.383-.483 1.383-2.438 0-2.92l-2.79-.974a1.547 1.547 0 0 1-.95-.95l-.974-2.789c-.483-1.382-2.439-1.382-2.922 0M711.351 521.938l-.974 2.788a1.546 1.546 0 0 1-.95.95l-2.79.974c-1.383.483-1.383 2.437 0 2.92l2.79.974c.444.155.795.505.95.95l.974 2.788c.483 1.382 2.439 1.382 2.922 0l.974-2.788c.155-.445.505-.795.95-.95l2.79-.974c1.383-.483 1.383-2.437 0-2.92l-2.79-.974a1.547 1.547 0 0 1-.95-.95l-.974-2.788c-.483-1.382-2.439-1.382-2.922 0M115.551 881.8l-.974 2.789a1.546 1.546 0 0 1-.95.95l-2.79.974c-1.383.483-1.383 2.437 0 2.92l2.79.974c.444.155.795.505.95.95l.974 2.788c.483 1.382 2.439 1.382 2.922 0l.974-2.788c.155-.445.505-.795.95-.95l2.79-.974c1.383-.483 1.383-2.437 0-2.92l-2.79-.974a1.547 1.547 0 0 1-.95-.95l-.974-2.788c-.483-1.382-2.439-1.382-2.922 0M321.651 16.33l-.974 2.789a1.546 1.546 0 0 1-.95.95l-2.79.974c-1.383.483-1.383 2.437 0 2.92l2.79.974c.444.155.795.505.95.95l.974 2.788c.483 1.382 2.439 1.382 2.922 0l.974-2.788c.155-.445.505-.795.95-.95l2.79-.974c1.383-.483 1.383-2.437 0-2.92l-2.79-.974a1.547 1.547 0 0 1-.95-.95l-.974-2.788c-.483-1.382-2.439-1.382-2.922 0M432.351 800.832l-.974 2.788a1.546 1.546 0 0 1-.95.95l-2.79.974c-1.383.482-1.383 2.437 0 2.92l2.79.973c.444.156.795.505.95.95l.974 2.789c.483 1.382 2.439 1.382 2.922 0l.974-2.789c.155-.445.505-.794.95-.95l2.79-.973c1.383-.483 1.383-2.438 0-2.92l-2.79-.974a1.547 1.547 0 0 1-.95-.95l-.974-2.788c-.483-1.382-2.439-1.382-2.922 0" fill="#DBDDE4"/><ellipse fill="#DBDDE4" transform="matrix(-1 0 0 1 1141.816 0)" cx="570.908" cy="146.052" rx="4.808" ry="4.806"/><ellipse fill="#DBDDE4" transform="matrix(-1 0 0 1 1590.016 0)" cx="795.008" cy="345.776" rx="4.808" ry="4.806"/><ellipse fill="#DBDDE4" transform="matrix(-1 0 0 1 9.616 0)" cx="4.808" cy="419.548" rx="4.808" ry="4.806"/><ellipse fill="#DBDDE4" transform="matrix(-1 0 0 1 812.416 0)" cx="406.208" cy="165.844" rx="4.808" ry="4.806"/><ellipse fill="#DBDDE4" transform="matrix(-1 0 0 1 956.416 0)" cx="478.208" cy="934.151" rx="4.808" ry="4.806"/><ellipse fill="#DBDDE4" transform="matrix(-1 0 0 1 1609.816 0)" cx="804.908" cy="746.123" rx="4.808" ry="4.806"/><ellipse fill="#DBDDE4" transform="matrix(-1 0 0 1 196.816 0)" cx="98.408" cy="624.669" rx="4.808" ry="4.806"/><ellipse stroke="#DBDDE4" stroke-width="3.6" transform="matrix(-1 0 0 1 1411.2 0)" cx="705.6" cy="155.64" rx="7.2" ry="7.196"/><ellipse stroke="#DBDDE4" stroke-width="3.6" transform="matrix(-1 0 0 1 309.6 0)" cx="154.8" cy="274.395" rx="7.2" ry="7.196"/><ellipse stroke="#DBDDE4" stroke-width="3.6" transform="matrix(-1 0 0 1 23.4 0)" cx="11.7" cy="760.209" rx="7.2" ry="7.196"/><ellipse stroke="#DBDDE4" stroke-width="3.6" transform="matrix(-1 0 0 1 954 0)" cx="477" cy="4.498" rx="4.5" ry="4.498"/><ellipse stroke="#DBDDE4" stroke-width="3.6" transform="matrix(-1 0 0 1 1207.8 0)" cx="603.9" cy="755.711" rx="4.5" ry="4.498"/><path stroke="#DBDDE4" stroke-width="3.6" stroke-linejoin="round" d="M62.1 177.232l9 16.494h-18zM221.4 756.611l9 16.494h-18zM685.8 324.776l9 16.494h-18zM163.8 398.548l9 16.494h-18zM694.8 882.563l9 16.494h-18z"/></g></svg>