<?xml version="1.0" encoding="UTF-8" standalone="no"?>
<svg width="1095px" height="764px" viewBox="0 0 1095 764" version="1.1" xmlns="http://www.w3.org/2000/svg" xmlns:xlink="http://www.w3.org/1999/xlink">
    <!-- Generator: Sketch 43.2 (39069) - http://www.bohemiancoding.com/sketch -->
    <title>Group</title>
    <desc>Created with Sketch.</desc>
    <defs></defs>
    <g id="Page-1" stroke="none" stroke-width="1" fill="none" fill-rule="evenodd">
        <g id="Desktop-HD-Copy" transform="translate(-137.000000, -103.000000)">
            <g id="Group" transform="translate(138.000000, 103.000000)">
                <circle id="Oval-2" stroke="#FBB3B3" stroke-width="2" cx="159" cy="496" r="10"></circle>
                <circle id="Oval-2" stroke="#FDB4B3" stroke-width="2" fill="#FDB2B3" cx="204.5" cy="159.5" r="9.5"></circle>
                <circle id="Oval-2" stroke="#FDB4B3" stroke-width="2" cx="895" cy="58" r="10"></circle>
                <circle id="Oval-2" stroke="#FECC29" stroke-width="2" cx="871.5" cy="426.5" r="14.5"></circle>
                <path d="M4.51076185,729 C17.7647028,752.211176 0,762.938301 0,762.938301" id="Path-2" stroke="#042DC2" stroke-width="2"></path>
                <path d="M522.908539,620.020684 L542.925667,620.020684" id="Line" stroke="#FBB3B3" stroke-width="2" stroke-linecap="square" transform="translate(532.908539, 620.020684) rotate(41.000000) translate(-532.908539, -620.020684) "></path>
                <rect id="Rectangle-9" stroke="#FECA16" transform="translate(35.157408, 9.157408) rotate(40.000000) translate(-35.157408, -9.157408) " x="29.1574083" y="3.15740834" width="12" height="12"></rect>
                <rect id="Rectangle-9-Copy" stroke="#FECA16" transform="translate(643.157408, 280.157408) rotate(40.000000) translate(-643.157408, -280.157408) " x="637.157408" y="274.157408" width="12" height="12"></rect>
                <path d="M1092.99974,723 C1092.99974,723 1087.64174,723.397475 1087.40344,726.945893 C1087.16514,730.49431 1086.33668,733.310145 1081.39291,735.728505 C1076.44915,738.146866 1069.07026,732.629691 1069.07026,732.629691 C1069.07026,732.629691 1060.60507,726.222619 1057.3657,734.872119 C1054.12632,743.52162 1050.28748,744.527874 1050.28748,744.527874 C1050.28748,744.527874 1044.70887,746.55481 1039.57148,740.159373 C1034.43409,733.763937 1028.67024,740.053256 1028.67024,740.053256 C1028.67024,740.053256 1024.24775,750.653828 1021,751.360346" id="Path-3" stroke="#042EC3" stroke-width="2"></path>
                <path d="M388.461627,349.279488 C388.461627,349.279488 383.103628,349.676962 382.865329,353.22538 C382.62703,356.773798 381.79857,359.589633 376.854801,362.007993 C371.911032,364.426353 364.532148,358.909178 364.532148,358.909178 C364.532148,358.909178 356.066957,352.502106 352.827583,361.151607 C349.588209,369.801108 345.749364,370.807361 345.749364,370.807361 C345.749364,370.807361 340.170753,372.834297 335.033367,366.438861 C329.89598,360.043424 324.132129,366.332743 324.132129,366.332743 C324.132129,366.332743 319.709639,376.933315 316.461887,377.639834" id="Path-3" stroke="#042EC3" stroke-width="2" transform="translate(352.461757, 363.459661) rotate(83.000000) translate(-352.461757, -363.459661) "></path>
            </g>
        </g>
    </g>
</svg>