<svg width="1095" height="764" viewBox="0 0 1095 764" xmlns="http://www.w3.org/2000/svg"><title>confetti-opacity</title><g transform="translate(1)" stroke="#E5E5E5" fill="none" fill-rule="evenodd" opacity=".639"><circle stroke-width="2" cx="159" cy="496" r="10"/><circle stroke-width="2" fill="#E5E5E5" cx="204.5" cy="159.5" r="9.5"/><circle stroke-width="2" cx="895" cy="58" r="10"/><circle stroke-width="2" cx="871.5" cy="426.5" r="14.5"/><path d="M4.51 729C17.766 752.211 0 762.938 0 762.938" stroke-width="2"/><path d="M525.361 613.46l15.108 13.133" stroke-width="2" stroke-linecap="square"/><path d="M34.418.704l9.192 7.713-7.713 9.193-9.193-7.714zM642.418 271.704l9.192 7.713-7.713 9.193-9.193-7.714z"/><path d="M1093 723s-5.358.397-5.597 3.946c-.238 3.548-1.066 6.364-6.01 8.783-4.944 2.418-12.323-3.1-12.323-3.1s-8.465-6.406-11.704 2.243c-3.24 8.65-7.079 9.656-7.079 9.656s-5.578 2.027-10.716-4.369c-5.137-6.395-10.9-.106-10.9-.106s-4.423 10.6-7.671 11.307M370.924 397.463s-1.048-5.27-4.599-5.074c-3.551.196-6.447-.283-9.45-4.895-3.002-4.612 1.574-12.608 1.574-12.608s5.328-9.183-3.652-11.345c-8.98-2.16-10.446-5.848-10.446-5.848s-2.692-5.29 3.03-11.169c5.721-5.878-1.223-10.833-1.223-10.833s-11.06-3.097-12.158-6.235" stroke-width="2"/></g></svg>